<?xml version="1.0" encoding="UTF-8" standalone="no"?>
<!-- Created with Inkscape (http://www.inkscape.org/) -->

<svg
   width="122.28698mm"
   height="122.91252mm"
   viewBox="0 0 122.28699 122.91253"
   version="1.1"
   id="svg5"
   inkscape:version="1.1.1 (c3084ef, 2021-09-22)"
   sodipodi:docname="pizza.svg"
   xmlns:inkscape="http://www.inkscape.org/namespaces/inkscape"
   xmlns:sodipodi="http://sodipodi.sourceforge.net/DTD/sodipodi-0.dtd"
   xmlns="http://www.w3.org/2000/svg"
   xmlns:svg="http://www.w3.org/2000/svg">
  <sodipodi:namedview
     id="namedview7"
     pagecolor="#ffffff"
     bordercolor="#666666"
     borderopacity="1.0"
     inkscape:pageshadow="2"
     inkscape:pageopacity="0.0"
     inkscape:pagecheckerboard="0"
     inkscape:document-units="mm"
     showgrid="false"
     inkscape:zoom="0.68556785"
     inkscape:cx="257.45081"
     inkscape:cy="371.22511"
     inkscape:window-width="1147"
     inkscape:window-height="1301"
     inkscape:window-x="0"
     inkscape:window-y="25"
     inkscape:window-maximized="0"
     inkscape:current-layer="layer1" />
  <defs
     id="defs2">
    <clipPath
       clipPathUnits="userSpaceOnUse"
       id="clipPath3104">
      <rect
         style="fill:#f896ff;stroke-width:0.79375;stroke-linecap:round"
         id="rect3106"
         width="201.40205"
         height="191.87628"
         x="-276.24741"
         y="-21.773193"
         transform="scale(1,-1)" />
    </clipPath>
    <clipPath
       clipPathUnits="userSpaceOnUse"
       id="clipPath3248">
      <rect
         style="fill:#f896ff;stroke-width:0.8489;stroke-linecap:round"
         id="rect3250"
         width="146.62888"
         height="146.62888"
         x="-251.07216"
         y="-155.81442" />
    </clipPath>
  </defs>
  <g
     inkscape:label="Layer 1"
     inkscape:groupmode="layer"
     id="layer1"
     transform="translate(-45.120833,-77.501637)">
    <path
       style="fill:#000000;stroke-width:0.152346"
       d="m 45.155335,200.16671 c 0.471539,-1.21634 49.804534,-119.096728 50.00984,-119.497601 0.52666,-1.028412 1.50012,-1.940282 2.695856,-2.52527 0.974583,-0.476843 1.339166,-0.571497 2.415629,-0.627439 1.67208,-0.0868 2.58785,0.186044 4.82905,1.439418 4.06011,2.270567 7.87383,5.039658 11.03583,8.013071 3.81698,3.589285 7.3246,6.076996 15.15649,10.749512 7.85188,4.684399 11.18255,7.033859 14.36713,10.134399 4.27657,4.16375 6.97397,8.43697 11.35564,17.98944 3.3376,7.27645 4.64997,9.69744 7.9892,14.73834 1.8259,2.75642 2.22699,3.59256 2.36915,4.93899 0.24479,2.31748 -1.1025,4.89619 -3.11861,5.96933 -0.73097,0.38926 -118.87065,48.92526 -119.086714,48.92526 -0.06293,0 -0.07119,-0.11126 -0.01737,-0.2475 z m 21.585283,-12.88962 c 7.420786,-3.03871 13.542012,-5.57348 13.602736,-5.63278 0.06076,-0.0593 0.0044,-0.44736 -0.121968,-0.86245 -0.588991,-1.91201 -0.72563,-2.89607 -0.72563,-5.22617 0,-3.12973 0.432733,-5.02804 1.736719,-7.61822 2.395143,-4.7578 6.898016,-8.14653 12.130598,-9.12911 1.587536,-0.29819 4.919861,-0.29819 6.507403,0 3.624424,0.68057 7.359444,2.74812 9.594724,5.3112 0.96891,1.11093 2.0773,2.72437 2.52953,3.68205 0.20487,0.43367 0.42189,0.76986 0.48218,0.74713 0.0603,-0.0214 4.17999,-1.70794 9.15459,-3.74494 l 9.04474,-3.70357 -1.36927,-1.40114 c -2.62823,-2.68941 -4.12145,-5.64923 -4.67107,-9.25904 -0.28429,-1.86676 -0.28603,-3.21518 -0.009,-5.04861 0.99269,-6.51848 5.44961,-11.75342 11.7221,-13.76832 1.18465,-0.38069 3.44326,-0.78233 4.39779,-0.78233 h 0.68279 l -0.65028,-1.17475 c -2.10087,-3.79502 -4.52219,-6.97148 -7.71275,-10.11817 -3.66515,-3.61477 -5.21814,-4.60506 -9.34987,-5.96214 -3.80633,-1.25019 -5.51496,-2.06081 -9.26365,-4.39479 -4.9213,-3.06402 -11.48876,-8.43946 -15.819404,-12.948051 -1.238561,-1.28951 -2.665865,-2.666451 -3.171692,-3.059858 l -0.919721,-0.715299 -0.210948,0.50477 c -0.115892,0.27756 -1.638436,3.915229 -3.383445,8.083568 -1.745009,4.16835 -3.206063,7.6933 -3.246734,7.83321 -0.05903,0.20237 0.142369,0.31837 0.983527,0.5662 1.573691,0.46396 3.93981,1.66599 5.345567,2.71566 2.237553,1.67075 3.84176,3.63909 5.103148,6.26133 3.147552,6.54361 1.808642,14.25956 -3.362871,19.37892 -5.179542,5.12735 -13.081239,6.4264 -19.727,3.24312 -0.787177,-0.37683 -1.460981,-0.65612 -1.497355,-0.6201 -0.03472,0.0344 -0.605904,1.35378 -1.265732,2.92838 l -1.199597,2.86294 0.661173,0.72875 c 1.606201,1.7703 2.109119,4.25049 1.361006,6.71178 -0.08637,0.28443 0.0087,0.34202 0.935435,0.56853 3.423087,0.83622 5.566106,4.01861 4.992524,7.41399 -0.403218,2.38717 -1.941142,4.48084 -4.125048,5.61579 -1.106667,0.57512 -2.695635,1.00786 -3.719052,1.01281 -0.432298,0.001 -0.593548,0.0903 -0.801486,0.43885 -0.430577,0.72119 -2.023191,2.07769 -3.016832,2.56923 -0.512859,0.2535 -1.326542,0.54227 -1.808193,0.64136 -1.122814,0.23073 -3.260362,0.10229 -4.200616,-0.25264 -0.397146,-0.14996 -0.752275,-0.24148 -0.789429,-0.20409 -0.07857,0.0795 -8.977413,21.35692 -8.977413,21.46486 0,0.12978 0.506956,-0.073 14.145621,-5.65812 z m -0.776008,-4.20835 c -0.516983,-0.23846 -0.877538,-0.5259 -1.033574,-0.82466 -0.271708,-0.52048 -0.312941,-1.47615 -0.08812,-2.06088 0.225267,-0.58645 -0.124138,-0.63199 -1.196164,-0.15597 -0.500704,0.22257 -1.073374,0.38155 -1.272598,0.35362 -0.313375,-0.0439 -0.368498,-0.14567 -0.407995,-0.75214 l -0.046,-0.70134 1.612927,-0.10865 c 1.540441,-0.10405 1.605764,-0.12197 1.452072,-0.40647 -0.368933,-0.68208 0.317716,-1.86004 1.403854,-2.40852 1.313925,-0.66357 2.750411,-0.2462 3.413495,0.99188 0.178814,0.33342 0.342884,0.63585 0.365455,0.672 0.0217,0.0344 0.122402,-0.0172 0.221785,-0.11387 0.251314,-0.24876 0.966223,-0.22429 1.504126,0.0511 0.534691,0.27369 1.035744,1.17792 1.163339,2.0995 0.249579,1.80335 -1.258222,3.31986 -2.800183,2.81606 -0.490766,-0.16027 -0.575449,-0.14266 -0.947024,0.20023 -0.224404,0.2071 -0.558564,0.45296 -0.742513,0.54654 -0.565683,0.28744 -1.742623,0.19764 -2.603097,-0.19894 z m 40.53748,-25.09871 c -2.99577,-0.41548 -6.20811,-2.08803 -8.205506,-4.27288 -2.402409,-2.6279 -3.740193,-6.03945 -3.745011,-9.55027 -0.0014,-1.30232 0.03038,-1.49068 0.294271,-1.62959 0.219195,-0.11603 3.797616,0.25909 13.726306,1.43928 7.38645,0.87799 13.4888,1.63235 13.56081,1.67644 0.41754,0.25521 -0.2179,2.88389 -1.13232,4.68527 -1.8569,3.65748 -5.3122,6.43197 -9.14881,7.34617 -1.51822,0.36178 -3.94468,0.50039 -5.34987,0.3055 z m 4.81487,-2.73632 c 2.62961,-0.8027 4.79164,-2.39722 6.22306,-4.58954 0.73789,-1.13019 0.77374,-1.92275 0.10898,-2.41196 -0.38718,-0.2853 -0.49451,-0.2896 -2.58262,-0.10668 -4.82628,0.42323 -9.20051,-0.10624 -14.13234,-1.70992 -1.839327,-0.59822 -1.985717,-0.62345 -2.373325,-0.40819 -0.226986,0.12588 -0.504088,0.41679 -0.615295,0.64566 -0.178372,0.36693 -0.155369,0.55646 0.19359,1.59328 0.549534,1.63337 1.354713,2.92606 2.61165,4.19263 1.62473,1.63732 3.65103,2.69704 5.93143,3.10203 1.20509,0.21397 3.40436,0.0683 4.63464,-0.30763 z m -4.09683,-2.88131 c -0.37849,-0.21827 -0.33336,-0.68309 0.1684,-1.73095 l 0.43559,-0.90948 0.17623,0.80323 c 0.36415,1.65819 0.0777,2.33217 -0.78057,1.8372 z m 2.59728,0.0696 c -0.13369,-0.13238 -0.11676,-1.81693 0.0217,-2.31023 0.0902,-0.31881 0.14885,-0.25993 0.53386,0.53743 0.53425,1.10652 0.51285,1.76993 -0.059,1.83595 -0.21355,0.0258 -0.43764,-0.004 -0.49767,-0.0633 z m 2.53213,-0.54246 c -0.0907,-0.10822 -0.20922,-0.70869 -0.26347,-1.33394 l -0.0981,-1.13685 0.47902,0.53056 c 1.00084,1.1084 1.19112,2.0058 0.44362,2.09181 -0.21788,0.0258 -0.47027,-0.043 -0.56116,-0.15167 z m -7.80899,-0.0701 c -0.46837,-0.18691 0.0998,-1.47839 0.95653,-2.17324 0.26823,-0.21742 0.27605,-0.18261 0.18273,0.81322 -0.125,1.33349 -0.39585,1.65695 -1.1393,1.36002 z m 9.93368,-0.98849 c -0.0738,-0.19292 -0.18316,-0.65803 -0.24349,-1.03317 l -0.10982,-0.68209 0.62237,0.60629 c 0.77846,0.75836 0.89676,1.34258 0.28603,1.41214 -0.32379,0.0386 -0.45197,-0.0344 -0.55504,-0.30334 z m -12.42756,-0.20625 c -0.1771,-0.21137 -0.17493,-0.30978 0.0173,-0.64613 0.26605,-0.46888 1.56566,-1.48848 1.635,-1.28253 0.0261,0.0786 -0.10942,0.58009 -0.30122,1.11481 -0.296,0.82387 -0.40972,0.9792 -0.74481,1.01783 -0.22786,0.0258 -0.48417,-0.0602 -0.60473,-0.20409 z m -1.92592,-1.34816 c -0.0465,-0.11993 -0.0217,-0.32868 0.0543,-0.46354 0.18794,-0.33257 1.48274,-1.1693 1.54161,-0.99624 0.0261,0.0761 -0.13022,0.48462 -0.34723,0.90807 -0.31641,0.61789 -0.47009,0.76987 -0.7791,0.76987 -0.2118,0 -0.42319,-0.0983 -0.46963,-0.21827 z m 14.08147,-2.30508 c 0.64433,-0.0542 1.17147,-0.1418 1.17147,-0.19551 0,-0.0537 -1.13059,-0.22042 -2.51242,-0.37123 -1.38182,-0.15039 -4.60305,-0.5303 -7.15828,-0.84386 -2.55527,-0.31366 -4.67266,-0.54774 -4.70539,-0.52031 -0.17536,0.1465 3.27515,1.1618 5.0995,1.50016 2.54957,0.47298 5.63823,0.63706 8.10512,0.43061 z m -30.753763,9.3457 c -0.252602,-0.16499 -0.641063,-0.61365 -0.863209,-0.99738 -0.230046,-0.39743 -0.448098,-0.62683 -0.506695,-0.53305 -0.181867,0.29133 -1.237923,0.18863 -1.691056,-0.16454 -0.877186,-0.68306 -1.260394,-2.39049 -0.787859,-3.5101 0.115024,-0.27198 0.439982,-0.68734 0.722404,-0.92263 0.476615,-0.397 0.586429,-0.42237 1.527289,-0.35576 0.913661,0.0648 1.047811,0.0386 1.358981,-0.28316 0.742065,-0.7632 2.24201,-0.83376 3.455627,-0.1624 1.035656,0.57283 1.316095,1.48862 0.902925,2.94887 -0.132821,0.46885 0.333783,0.45544 1.31731,-0.0386 0.415371,-0.20839 0.929966,-0.37897 1.143302,-0.37897 0.346791,0 0.390196,0.0646 0.411029,0.60629 0.01302,0.33343 0.03038,0.69156 0.03906,0.79579 0.0087,0.12125 -0.206173,0.19292 -0.597194,0.19979 -0.336808,0.004 -1.034658,0.0214 -1.550642,0.0386 l -0.938169,0.0258 0.07119,0.6442 c 0.08854,0.80118 -0.368509,1.54057 -1.26184,2.0415 -0.80088,0.44904 -2.099006,0.46989 -2.751585,0.0443 z m 35.650923,-20.91288 c -0.26694,-0.0628 -0.79955,-0.29689 -1.18384,-0.51972 -1.24066,-0.71973 -1.27919,-1.41556 -0.0786,-1.41556 0.80255,0 1.34145,-0.39057 1.807,-1.31018 0.45946,-0.90754 0.51103,-2.1384 0.11458,-2.73731 -0.4041,-0.61038 -1.21904,-0.89405 -2.31754,-0.80664 -1.21119,0.0961 -4.45427,1.18217 -7.53117,2.52152 -1.36283,0.59328 -2.58447,1.07866 -2.71472,1.07866 -0.13021,0 -0.50808,-0.10733 -0.83961,-0.23888 -1.16546,-0.46168 -1.9766,-2.26532 -2.11906,-4.71212 -0.0707,-1.21656 -0.039,-1.47328 0.25218,-2.07009 0.53578,-1.09556 0.80891,-1.16418 4.63413,-1.16418 5.12807,0 7.34549,-0.35919 8.41035,-1.36185 0.48325,-0.45506 0.5965,-0.66806 0.5965,-1.12173 0,-0.71768 -0.42798,-1.533 -1.18562,-2.25849 -0.71839,-0.68789 -1.41478,-0.84647 -2.2323,-0.50833 -0.99958,0.41333 -1.25579,0.0824 -0.72857,-0.94042 1.0946,-2.12394 4.00052,-2.92639 7.42936,-2.05155 1.80744,0.46115 2.99092,1.34437 4.07201,3.03888 1.4075,2.2062 2.13334,4.69713 2.24503,7.70449 0.12326,3.32551 -0.37545,4.92433 -2.03846,6.5311 -1.90069,1.83643 -4.62767,2.80542 -6.5919,2.34223 z m -16.06393,-20.1484 c -0.25957,-0.15641 -0.56057,-0.49736 -0.66934,-0.75729 -0.17405,-0.41593 -0.27041,-0.47269 -0.79929,-0.47269 -1.87954,0 -3.39312,-2.48362 -2.44826,-4.01735 0.154086,-0.25049 0.532999,-0.58998 0.841557,-0.75445 0.308603,-0.16457 0.561063,-0.37123 0.561063,-0.45935 0,-0.19764 -0.657206,-0.58233 -1.397851,-0.81804 -0.305554,-0.097 -0.667505,-0.29904 -0.804138,-0.44865 -0.231777,-0.25351 -0.213982,-0.3115 0.263891,-0.85864 l 0.51242,-0.58683 1.102118,0.97804 c 1.27312,1.12985 1.3312,1.16168 1.43088,0.78426 0.039,-0.15511 0.33465,-0.40431 0.6531,-0.55375 1.26262,-0.59311 3.1008,0.0258 3.68255,1.23876 0.25305,0.52759 0.24524,1.35104 -0.0217,2.27503 -0.079,0.27413 -0.039,0.34116 0.21442,0.34116 0.1723,0 0.45578,0.1796 0.63034,0.39959 0.73588,0.9261 0.11458,2.89924 -1.14302,3.62873 -0.79226,0.45956 -1.92479,0.4951 -2.60948,0.0816 z m -13.220789,60.92783 c 0.858478,-0.84983 0.410596,-2.19283 -0.794629,-2.38266 -0.465677,-0.0735 -0.634002,-0.0172 -1.064174,0.36479 -0.712044,0.62977 -0.719162,1.40573 -0.01737,2.02535 0.656341,0.58056 1.285915,0.57802 1.877423,-0.009 z m 5.590398,-1.60207 c 0.31295,-0.47287 0.187943,-1.03306 -0.277778,-1.24299 -0.732747,-0.3304 -1.528548,0.38369 -1.172815,1.05242 0.365455,0.68669 1.061525,0.77817 1.450462,0.19076 z m 9.179501,-3.72021 c 0.9597,-0.92082 1.07429,-2.23963 0.27605,-3.17858 -1.1022,-1.29672 -2.8873,-1.20859 -3.93719,0.19421 -0.22701,0.30378 -0.31469,0.65064 -0.31469,1.24663 0,0.93108 0.28648,1.43434 1.1515,2.02183 0.4356,0.29604 0.66768,0.34416 1.40398,0.29346 0.75362,-0.052 0.96058,-0.13615 1.42039,-0.57751 z m -8.465542,-1.35172 c 1.151069,-1.27517 -0.170153,-3.2676 -1.81099,-2.73148 -1.401936,0.45802 -1.50919,2.61735 -0.158413,3.19001 0.606699,0.25735 1.514051,0.046 1.969403,-0.45853 z m -29.366767,-0.1693 c 0.987491,-0.36564 2.32636,-1.50881 2.897729,-2.47392 0.472231,-0.79767 0.865162,-0.96258 2.479391,-1.04039 2.888441,-0.13918 5.25511,-2.22158 5.530848,-4.86629 0.244369,-2.34421 -1.78879,-4.49266 -4.251689,-4.49266 -1.007791,0 -1.750001,-0.32267 -2.046312,-0.89 -0.336388,-0.64416 -0.300362,-1.1207 0.159716,-2.11335 0.707617,-1.52608 0.620155,-3.31545 -0.214406,-4.38884 -0.263034,-0.33858 -0.332916,-0.18734 -4.429143,9.62508 -2.288979,5.48293 -4.204343,10.08116 -4.256428,10.21827 -0.07206,0.19034 0.06164,0.30377 0.566288,0.48063 0.979016,0.34286 2.550231,0.31708 3.563962,-0.0584 z m 21.948147,-0.171 c 0.259996,-0.25738 0.227876,-0.96536 -0.05686,-1.24728 -0.755695,-0.74809 -1.907894,0.36694 -1.190251,1.15198 0.28776,0.31495 0.972546,0.36693 1.247111,0.0954 z M 100.2412,164.8463 c 0.57232,-0.51275 0.15192,-1.41647 -0.658922,-1.41647 -0.757946,0 -1.063302,0.82082 -0.549752,1.47788 0.210079,0.26853 0.878067,0.23458 1.208674,-0.0615 z m 39.16149,-9.36879 c 0.23828,-0.12196 0.60754,-0.42665 0.8202,-0.67679 1.13667,-1.3372 0.26651,-3.3913 -1.57512,-3.71825 -0.65701,-0.11647 -1.73844,0.38628 -2.2113,1.02816 -0.45161,0.61318 -0.4389,1.97717 0.0261,2.62022 0.63794,0.88536 1.99696,1.2303 2.94174,0.74666 z m -6.58531,-0.45411 c 0.70762,-0.36219 0.82903,-1.25719 0.24872,-1.83186 -0.99959,-0.98947 -2.58205,0.22386 -1.91094,1.46541 0.29862,0.55233 0.99811,0.70654 1.66244,0.36649 z m 12.97603,-2.29715 c 0.23526,-0.35576 0.23916,-0.43747 0.0347,-0.79578 -0.17578,-0.30979 -0.34376,-0.39959 -0.75062,-0.39959 -0.40668,0 -0.57484,0.0895 -0.75063,0.39959 -0.20312,0.35835 -0.19965,0.44015 0.0348,0.79578 0.18491,0.27928 0.39584,0.39658 0.7147,0.39658 0.31901,0 0.52974,-0.1169 0.71468,-0.39658 z m 14.0613,-3.56995 c 1.26323,-0.51641 2.31698,-0.9523 2.34168,-0.96863 0.0261,-0.0172 -0.94825,-1.52157 -2.16216,-3.34511 -1.21388,-1.82349 -2.70293,-4.13397 -3.30902,-5.13436 -1.29612,-2.13948 -3.67538,-6.87235 -5.753,-11.44403 -3.65817,-8.04966 -6.05334,-11.93425 -9.49178,-15.39433 -2.936,-2.95451 -6.01576,-5.14202 -13.55099,-9.62496 -7.32507,-4.35795 -9.0252,-5.553927 -15.69466,-11.040777 -4.74251,-3.901615 -6.94591,-5.582891 -9.3134,-7.106606 -1.93528,-1.245549 -4.251486,-2.435684 -4.340601,-2.230306 -0.03476,0.08334 -0.497104,1.174364 -1.024282,2.42447 l -0.958476,2.272886 1.710798,0.931122 c 3.361141,1.829288 6.025041,3.737862 11.399511,8.167221 6.20878,5.11701 7.82726,6.26583 14.0869,9.99945 7.71029,4.59881 10.91097,6.90728 14.01038,10.10484 3.30935,3.41415 5.78112,7.48553 9.41858,15.51377 1.80628,3.98671 3.72269,7.75964 5.0044,9.85244 1.40393,2.29243 5.14056,7.95387 5.25276,7.95863 0.0434,0.001 1.11014,-0.41935 2.37336,-0.93572 z m -14.42558,-0.12805 c 1.0597,-0.82516 0.3737,-2.49399 -1.00949,-2.45536 -0.34201,0.009 -0.61585,0.15382 -0.91035,0.47993 -0.53637,0.59397 -0.54462,1.20233 -0.0261,1.81404 0.48538,0.57108 1.32854,0.64102 1.94453,0.16155 z m -10.59758,-0.59281 c 0.7629,-0.75519 0.56249,-1.82342 -0.41799,-2.22901 -1.15865,-0.47926 -2.275,0.53334 -1.88332,1.70821 0.34635,1.03901 1.51161,1.3027 2.30144,0.5208 z m 5.52673,-1.47512 c 0.56663,-0.50761 0.15364,-1.41648 -0.64369,-1.41648 -0.49706,0 -0.79888,0.31494 -0.79888,0.83368 0,0.77912 0.8432,1.11975 1.44257,0.5828 z m 0.67814,-5.11494 c 0.42666,-0.42236 0.52058,-0.63006 0.52058,-1.15197 0,-0.52192 -0.0937,-0.72949 -0.52058,-1.15197 -0.42668,-0.42236 -0.63653,-0.51535 -1.1637,-0.51535 -0.52723,0 -0.73692,0.0928 -1.1637,0.51535 -0.42666,0.42235 -0.52064,0.63005 -0.52064,1.15197 0,0.52191 0.0937,0.72948 0.52064,1.15197 0.42665,0.42237 0.63647,0.51537 1.1637,0.51537 0.52717,0 0.73689,-0.0928 1.1637,-0.51537 z m -7.32673,-0.43621 c 0.27127,-0.20795 0.23697,-0.8692 -0.0621,-1.19643 -0.70527,-0.77147 -1.8941,0.29904 -1.23949,1.11635 0.33465,0.41763 0.82156,0.44776 1.30152,0.0798 z m -50.797184,-4.3375 c 0.632223,-0.44809 1.071857,-1.21607 1.071857,-1.87238 0,-1.28865 -0.856307,-2.23111 -2.137896,-2.35301 -2.171044,-0.20667 -3.377803,2.36365 -1.829461,3.8964 0.795324,0.78737 2.048048,0.92966 2.8955,0.32913 z m 6.469726,-0.46842 c 0.515549,-0.40129 0.638732,-0.95414 0.339846,-1.52599 -0.229163,-0.43902 -0.744583,-0.75006 -1.242597,-0.75006 -0.403232,0 -1.127067,0.8482 -1.121772,1.31465 0.01302,1.036 1.202404,1.60144 2.024392,0.9614 z m 3.452024,-5.86436 c 1.092213,-0.67537 1.234408,-2.17027 0.28821,-3.02874 -0.696462,-0.63181 -1.423741,-0.77214 -2.174314,-0.41934 -1.200769,0.56406 -1.530068,2.04489 -0.670288,3.01425 0.720899,0.81276 1.680597,0.97574 2.556479,0.43405 z m -9.129884,-1.66454 c 0.348094,-0.31194 0.358944,-0.77564 0.02604,-1.13927 -0.31078,-0.3403 -0.867607,-0.35833 -1.190265,-0.0386 -0.284722,0.28185 -0.316842,0.98971 -0.05686,1.24722 0.2626,0.25994 0.892984,0.22428 1.220561,-0.0692 z m 3.209102,-2.4775 c 0.08117,0 0.316841,-0.18045 0.523362,-0.40131 0.804526,-0.85931 0.196176,-2.32727 -0.964733,-2.32727 -0.71595,0 -1.098072,0.23846 -1.354379,0.84587 -0.190547,0.4515 -0.189679,0.58732 0.0087,1.05376 0.23048,0.54567 1.022808,1.04159 1.43666,0.89899 0.111985,-0.0386 0.270413,-0.0701 0.352014,-0.0701 z m 7.090039,-2.47495 c 0.31988,-0.23158 0.367191,-0.9041 0.08724,-1.2382 -0.253051,-0.30163 -0.902316,-0.29003 -1.251553,0.0214 -0.799967,0.71669 0.286473,1.85062 1.164483,1.21518 z m -4.769899,-3.79681 c 1.6187,-0.68562 2.034245,-2.59969 0.834314,-3.84308 -0.961144,-0.99593 -2.304787,-1.02115 -3.322909,-0.0624 -1.892615,1.78229 0.103741,4.91553 2.488595,3.90547 z"
       id="path4130"
       sodipodi:nodetypes="cssssssssssscccccsssssscscsscsscsssssscssscssscsscsscssscscscsccccccsccscscscsssscccccscsccscccccssssssscccccscccsscccsscscssscssscccscccccccccccsscsccsccscsssccsccsccsscssccccssccccsssssscscsssssssscsccccssssssscsccssscscccsccccssssssscssssssssssssssscsscssssssssscsssccsscccccscccssscsccscssssssscscsssssssscsscccsssssssssscssssssscssccssssssscscsscccsccccssccccsscscccscccssssss" />
  </g>
</svg>
