<?xml version="1.0" encoding="UTF-8" standalone="no"?>
<!-- Created with Inkscape (http://www.inkscape.org/) -->

<svg
   width="195.14703mm"
   height="109.80833mm"
   viewBox="0 0 195.14705 109.80834"
   version="1.1"
   id="svg5"
   inkscape:version="1.1.1 (c3084ef, 2021-09-22)"
   sodipodi:docname="lobster.svg"
   xmlns:inkscape="http://www.inkscape.org/namespaces/inkscape"
   xmlns:sodipodi="http://sodipodi.sourceforge.net/DTD/sodipodi-0.dtd"
   xmlns="http://www.w3.org/2000/svg"
   xmlns:svg="http://www.w3.org/2000/svg">
  <sodipodi:namedview
     id="namedview7"
     pagecolor="#ffffff"
     bordercolor="#666666"
     borderopacity="1.0"
     inkscape:pageshadow="2"
     inkscape:pageopacity="0.0"
     inkscape:pagecheckerboard="0"
     inkscape:document-units="mm"
     showgrid="false"
     inkscape:zoom="0.68556785"
     inkscape:cx="289.541"
     inkscape:cy="495.20992"
     inkscape:window-width="1831"
     inkscape:window-height="1301"
     inkscape:window-x="0"
     inkscape:window-y="25"
     inkscape:window-maximized="0"
     inkscape:current-layer="layer1" />
  <defs
     id="defs2">
    <clipPath
       clipPathUnits="userSpaceOnUse"
       id="clipPath3104">
      <rect
         style="fill:#f896ff;stroke-width:0.79375;stroke-linecap:round"
         id="rect3106"
         width="201.40205"
         height="191.87628"
         x="-276.24741"
         y="-21.773193"
         transform="scale(1,-1)" />
    </clipPath>
    <clipPath
       clipPathUnits="userSpaceOnUse"
       id="clipPath3248">
      <rect
         style="fill:#f896ff;stroke-width:0.8489;stroke-linecap:round"
         id="rect3250"
         width="146.62888"
         height="146.62888"
         x="-251.07216"
         y="-155.81442" />
    </clipPath>
  </defs>
  <g
     inkscape:label="Layer 1"
     inkscape:groupmode="layer"
     id="layer1"
     transform="translate(-12.504959,-77.239248)">
    <path
       style="fill:#000000;stroke-width:0.12623"
       d="m 93.160513,77.416231 c -0.80351,0.29575 -1.53906,0.83431 -2.57377,1.8845 -2.01116,2.04124 -3.15957,3.97584 -5.55247,9.35376 -1.56597,3.51942 -3.5465,7.58893 -4.48456,9.21476 -0.36051,0.62484 -1.40809,2.272129 -2.32796,3.660659 -1.69586,2.55988 -3.63391,5.75333 -5.43901,8.96219 l -0.99407,1.76711 -0.27935,-2.65071 c -0.15364,-1.4579 -0.48421,-4.15603 -0.73461,-5.9958 -0.2504,-1.83982 -0.54118,-4.395969 -0.64618,-5.680329 -0.22331,-2.73158 -0.14327,-3.7441 0.46467,-5.87882 0.21606,-0.75867 0.42185,-1.75285 0.45733,-2.20937 0.16882,-2.17214 -1.07386,-3.66955 -3.04627,-3.67074 -1.37578,0 -2.57566,0.65659 -3.72991,2.04352 -1.90854,2.29336 -2.26101,3.95651 -2.00688,9.46946 0.13866,3.008139 0.13139,3.603259 -0.071,5.806559 -0.13818,1.50471 -0.25229,4.20598 -0.29479,6.97875 -0.048,3.12788 -0.1123,4.53831 -0.20856,4.57081 -0.0766,0.0258 -1.24689,0.16474 -2.60071,0.30863 -3.5681,0.37921 -5.80448,0.6674 -12.24427,1.57792 -6.44095,0.9107 -8.71425,1.14326 -9.91643,1.01452 -0.75973,-0.0814 -0.8581,-0.12816 -1.29046,-0.614 -1.13461,-1.27492 -3.5735,-3.70489 -4.38246,-4.36639 -1.88347,-1.54016 -4.11575,-2.76128 -5.93279,-3.24542 -1.24187,-0.33088 -4.34028,-0.32968 -5.42787,0.002 -3.42043,1.0435 -6.52889,3.97508 -7.19036,6.78121 -0.42927,1.82112 -0.2062,3.51437 0.94922,7.20513 1.38376,4.42018 1.65884,5.91298 1.65884,9.00235 0,3.09117 -0.27132,4.56427 -1.65248,8.9717 -0.96375,3.07545 -1.197,4.29841 -1.11771,5.86028 0.10232,2.01563 0.76019,3.42083 2.36642,5.05474 1.58292,1.6102 3.62688,2.7841 5.60146,3.21704 1.46878,0.32205 3.80484,0.20977 5.25429,-0.25254 1.32499,-0.42263 3.11055,-1.34527 4.46256,-2.30591 0.92345,-0.65615 4.01557,-3.60223 5.35744,-5.10444 0.47465,-0.53136 0.59814,-0.59913 1.23718,-0.67898 1.33017,-0.16619 3.06975,0.0177 11.41168,1.20668 7.95219,1.13339 13.24228,1.71107 18.49263,2.0194 3.51704,0.20653 3.14655,0.0641 3.53985,1.36125 0.84333,2.78156 2.63542,6.73621 3.97526,8.77232 0.35547,0.5402 1.11053,1.48003 1.6779,2.08849 0.60484,0.64864 1.1812,1.41318 1.39322,1.8481 0.45823,0.93992 0.77979,2.54883 0.9595,4.80091 0.22031,2.76076 0.65378,4.23547 1.74354,5.93147 1.50535,2.34281 3.81591,3.69474 6.53287,3.82245 1.11582,0.0524 1.34534,0.0255 1.93049,-0.22618 0.76378,-0.32856 1.42926,-1.03437 1.64072,-1.74015 0.0795,-0.2653 0.21239,-0.91896 0.29535,-1.4526 0.083,-0.53363 0.18326,-0.96834 0.22288,-0.96602 0.0396,0.002 0.41095,0.86857 0.82519,1.925 0.92456,2.35794 3.1156,6.82436 3.96587,8.0844 1.00961,1.49618 1.9111,2.09657 3.15569,2.10164 1.494417,0.006 2.415947,-0.63639 3.182887,-2.2191 0.37789,-0.77986 0.42172,-0.98273 0.41995,-1.94369 -0.003,-1.65214 -0.52063,-3.15685 -2.865737,-8.33116 -2.29436,-5.06232 -2.6246,-5.83756 -2.45562,-5.76456 0.0854,0.0369 0.89373,0.40546 1.79628,0.81905 0.90254,0.41358 2.578227,1.10648 3.723767,1.53977 1.14553,0.43329 2.67922,1.04278 3.4082,1.35441 3.14051,1.34258 4.64176,1.68855 6.24445,1.43903 1.65029,-0.25693 2.77771,-1.0014 3.46267,-2.28653 0.22333,-0.41901 0.43206,-0.76182 0.46386,-0.76182 0.0318,0 0.66751,0.30522 1.41269,0.67827 2.68819,1.34577 4.85948,1.97255 6.83327,1.97255 2.96241,0 5.20194,-1.57981 6.34145,-4.47336 0.19308,-0.49027 0.39596,-0.87865 0.45084,-0.86309 0.0549,0.0156 0.83824,0.28934 1.74078,0.60836 7.99638,2.82641 20.79109,3.72325 31.27029,2.19187 5.47421,-0.79997 9.82108,-2.67103 13.4431,-5.78641 3.50285,-3.01289 6.36324,-7.88141 7.17465,-12.21163 0.31655,-1.68934 0.0156,-2.75933 -0.95727,-3.40312 -0.77009,-0.50963 -1.36683,-0.56777 -2.99375,-0.29172 l -1.41875,0.24073 -0.80365,-0.79187 c -1.8955,-1.86772 -4.89436,-3.52649 -9.17116,-5.07288 -0.72897,-0.26358 -1.37325,-0.52153 -1.43173,-0.57323 -0.0585,-0.0517 0.67997,-0.27785 1.64099,-0.50252 7.95039,-1.85878 21.57903,-6.8591 33.74222,-12.37997 3.5083,-1.59241 4.30059,-2.28496 4.4,-3.84599 0.0655,-1.02944 -0.20076,-1.78569 -0.82039,-2.32974 -0.60232,-0.52884 -0.94563,-0.65246 -2.06058,-0.74194 -0.85475,-0.0686 -0.94305,-0.1005 -0.90887,-0.32844 0.15036,-1.00328 0.1635,-2.10572 0.0299,-2.51051 -0.35781,-1.08418 -1.36217,-1.76988 -2.59235,-1.76988 -0.88908,0 -1.46094,0.25892 -2.46528,1.1162 -0.56384,0.48128 -1.46056,0.90992 -5.60381,2.67865 -8.9918,3.83854 -15.32665,6.27254 -18.18666,6.98773 -1.46858,0.36725 -2.34426,0.31281 -7.19509,-0.44729 -8.65362,-1.35599 -13.13495,-1.93845 -18.49263,-2.40358 -2.75545,-0.23922 -12.03085,-0.37792 -14.39017,-0.21518 l -1.57787,0.10883 -0.6559,-0.53221 c -1.5715,-1.27512 -3.71456,-2.24008 -6.79165,-3.05811 -2.32767,-0.6188 -7.76312,-2.50403 -7.76312,-2.69255 0,-0.0487 0.39096,-0.29394 0.86879,-0.54504 1.06477,-0.55951 1.83426,-1.2063 3.00233,-2.52362 2.03447,-2.29439 3.97683,-4.00802 7.85406,-6.92914 2.10341,-1.58472 2.51137,-1.84369 2.90328,-1.84293 0.76885,0.001 2.39921,0.45205 6.36923,1.76018 4.29715,1.41592 5.32887,1.69753 7.00049,1.91078 1.92667,0.24578 3.48593,-0.12061 4.53084,-1.06464 0.27441,-0.24791 0.66508,-0.51751 0.86816,-0.59912 0.61208,-0.24594 2.78966,-0.14881 7.0594,0.31491 6.85018,0.74396 8.76002,0.88512 11.9287,0.8817 5.74272,-0.006 9.81927,-0.96086 12.93401,-3.02893 l 0.65388,-0.43415 1.10315,0.262 c 1.31386,0.31204 1.97126,0.25139 2.7708,-0.25569 2.22337,-1.40999 1.02269,-5.73902 -2.81921,-10.164559 -5.06631,-5.83593 -14.89731,-11.17922 -23.22624,-12.62365 -2.69711,-0.4678 -4.18423,-0.58479 -8.29616,-0.65267 -4.23213,-0.0699 -6.78129,0.0308 -10.51205,0.41437 -6.81254,0.70087 -13.51259,2.19292 -17.01575,3.78937 -0.51719,0.23571 -0.95264,0.42854 -0.96764,0.42854 -0.015,0 -0.0954,-0.3043 -0.1786,-0.67623 -0.20937,-0.93559 -0.73709,-1.60083 -1.66021,-2.09282 -1.98812,-1.05969 -6.56817,-1.30663 -9.44541,-0.50929 -0.49394,0.13686 -0.91993,0.24883 -0.94664,0.24883 -0.0267,0 -0.0857,-0.23243 -0.13118,-0.5165 -0.17658,-1.10431 -0.8904,-2.02623 -2.01627,-2.60416 -0.93771,-0.48131 -2.48736,-0.54949 -3.76256,-0.16554 -2.42874,0.73124 -5.04547,2.44846 -10.381917,6.81297 -2.8548,2.33485 -4.61736,3.7115 -4.67297,3.64983 -0.0221,-0.0244 0.58215,-1.1239 1.34283,-2.44299 3.09645,-5.36948 4.36985,-8.81679 4.08854,-11.06835 -0.20631,-1.65127 -1.4308,-2.76319 -3.02281,-2.7449 -0.42598,0.005 -0.9796,0.0844 -1.23026,0.17667 z m 1.53819,2.80588 c 0.0952,0.25037 0.075,0.60938 -0.0764,1.35632 -0.3927,1.93807 -1.35757,4.04864 -3.8408,8.40147 -1.81105,3.17458 -2.97928,5.56399 -3.78302,7.73763 -1.39017,3.759499 -2.76332,5.956239 -7.25458,11.605709 l -1.78016,2.23924 -0.66483,0.001 -0.66481,0.001 1.03667,-1.41948 c 2.68231,-3.67279 5.79752,-8.28777 6.47821,-9.59708 0.4036,-0.776319 1.04478,-1.227709 1.74396,-1.227709 0.47032,0 0.42334,-0.19466 -0.14453,-0.59899 l -0.48335,-0.34415 0.74984,-1.64278 c 1.05699,-2.31571 4.01703,-9.06606 5.23149,-11.93048 0.36516,-0.86124 -0.0117,-0.22851 -2.1558,3.61881 -2.74714,4.92961 -4.93018,8.73827 -4.98079,8.68981 -0.0216,-0.0204 0.33596,-0.78615 0.79446,-1.70116 0.45851,-0.91497 1.62993,-3.43454 2.60318,-5.59908 0.97323,-2.16449 1.96227,-4.28097 2.19785,-4.70324 1.31159,-2.3511 3.85374,-5.22809 4.61963,-5.22809 0.14916,0 0.29466,0.13259 0.37373,0.34057 z m 14.876487,5.41758 c 0.48317,0.28541 0.67683,0.62777 0.52041,0.92009 -0.27657,0.51674 -1.52814,1.46516 -3.46195,2.62339 -5.02862,3.01171 -5.31566,3.28748 -10.157317,9.75903 -3.05191,4.079259 -3.36027,4.427379 -7.09987,8.015579 -1.56588,1.50248 -2.58927,2.67861 -3.65203,4.19713 -0.41399,0.59155 -0.6272,0.78893 -0.85212,0.78893 -0.17791,0 -0.28338,-0.0643 -0.25917,-0.15815 0.0225,-0.087 1.31689,-2.28811 2.87655,-4.89142 2.95059,-4.92494 4.24446,-6.78892 6.23695,-8.985059 1.80802,-1.99279 1.69902,-1.91665 2.63618,-1.84146 0.43959,0.0353 0.9813,0.15833 1.20381,0.27338 0.40019,0.20694 0.40454,0.20599 0.40454,-0.0895 0,-0.16429 -0.17709,-0.65306 -0.39352,-1.08617 l -0.39353,-0.78754 0.38642,-0.33714 c 2.872717,-2.5064 3.962247,-3.43603 5.134237,-4.38071 0.76369,-0.61555 1.28803,-1.08081 1.16518,-1.03389 -0.12285,0.0467 -1.10271,0.59278 -2.17746,1.21294 -1.07476,0.62017 -1.954107,1.10809 -1.954107,1.08423 0,-0.081 2.447297,-1.97668 3.656257,-2.83206 3.12696,-2.21245 5.19603,-3.03324 6.18054,-2.45164 z m 49.2359,1.24818 c 5.31054,0.60124 9.30775,1.67945 13.59208,3.66643 4.0253,1.8668 8.07622,4.89731 10.61976,7.94461 0.92975,1.1139 2.11911,2.715429 2.01658,2.715429 -0.0254,0 -0.4904,-0.50989 -1.03331,-1.13309 -2.8872,-3.314019 -7.52619,-6.590229 -12.2468,-8.649109 -6.72772,-2.93424 -14.95171,-4.26467 -25.12673,-4.06494 -3.55086,0.0697 -3.60708,0.0159 -0.37868,-0.36179 3.90975,-0.45751 9.12324,-0.50631 12.5571,-0.11754 z m -38.49728,1.59651 c 4.26204,0.58021 1.77047,2.35463 -7.60604,5.41674 -5.07568,1.65758 -5.98763,2.37212 -11.64397,9.123759 -1.735657,2.07176 -3.573307,4.25861 -4.083677,4.85969 -0.83076,0.97843 -2.51967,3.40712 -3.06551,4.40826 -0.16808,0.30828 -0.26802,0.36711 -0.53648,0.3158 -0.18145,-0.0347 -0.32991,-0.087 -0.32991,-0.11632 0,-0.1461 1.26698,-2.79192 1.89468,-3.95666 3.21126,-5.95863 6.609047,-9.906239 11.611877,-13.490709 1.13981,-0.81667 1.38344,-0.88425 2.10344,-0.58339 l 0.45435,0.18984 -0.0679,-0.41074 c -0.0373,-0.22592 -0.0874,-0.48514 -0.11127,-0.57609 -0.0562,-0.21399 1.3232,-1.06261 3.86972,-2.38076 1.11082,-0.575 1.95324,-1.04677 1.87203,-1.04846 -0.25162,-0.005 -3.53829,1.11316 -5.05398,1.71961 -1.37647,0.55079 -1.87759,0.63721 -1.3531,0.23342 0.86006,-0.6621 3.35579,-2.27834 4.06604,-2.63312 2.40596,-1.20187 4.72814,-1.51352 7.97967,-1.07087 z m -52.002287,0.61992 c 0.15847,0.29614 0.0714,0.80598 -0.4373,2.56156 -0.5622,1.94006 -0.6589,3.47032 -0.41385,6.54998 0.11741,1.47559 0.41524,4.150169 0.66183,5.943519 0.44402,3.22909 0.9527,7.68813 0.8849,7.75717 -0.0879,0.0896 -2.03441,0.25219 -2.1073,0.17608 -0.15935,-0.16642 -0.4456,-5.91452 -0.38316,-7.69371 0.025,-0.71181 0.10095,-0.78923 0.95452,-0.97321 l 0.36309,-0.0783 -0.2809,-0.29903 c -0.15449,-0.16444 -0.44642,-0.36756 -0.64873,-0.45134 -0.20615,-0.0854 -0.3893,-0.2702 -0.41668,-0.42044 -0.15761,-0.86462 -0.62225,-7.205069 -0.62312,-8.502999 0,-0.84962 -0.0205,-1.52539 -0.0442,-1.50169 -0.21158,0.21161 -0.64296,4.09407 -0.68843,6.19594 l -0.0192,0.88992 -0.0922,-0.8205 c -0.14689,-1.30667 -0.13503,-5.09947 0.0182,-5.8319 0.26214,-1.25295 1.38083,-2.95601 2.31656,-3.52663 0.49881,-0.30419 0.78357,-0.29659 0.95598,0.0259 z m 67.105747,4.25224 c 0.004,2.18278 0.0452,2.68154 0.32782,4.00779 0.59181,2.777299 1.19613,4.079599 2.4967,5.380169 1.1381,1.1381 2.68989,1.94309 4.57662,2.37421 1.01603,0.23213 2.5944,0.44891 2.48239,0.34091 -0.0312,-0.0298 -0.49525,-0.34728 -1.03129,-0.70499 -1.39857,-0.93331 -2.54164,-2.14138 -3.10482,-3.28142 -0.43036,-0.87114 -0.46405,-1.02082 -0.45466,-2.019979 0.008,-0.79812 0.0835,-1.26731 0.29201,-1.802 l 0.28186,-0.72294 1.98012,-0.62752 c 8.15784,-2.58532 11.58708,-2.97116 17.50033,-1.96918 5.04178,0.85434 10.13268,2.53762 14.20686,4.69743 1.40966,0.74729 4.08347,2.435739 3.99589,2.523299 -0.0288,0.0288 -0.81544,-0.0887 -1.74815,-0.26091 -1.92951,-0.35642 -6.06586,-0.88753 -8.4961,-1.09084 -3.78727,-0.316909 -14.92948,-0.292009 -12.62296,0.0283 6.79605,0.94344 11.97697,2.07986 17.16722,3.76567 2.35353,0.76438 6.07866,2.17656 7.06237,2.67726 l 0.49843,0.25365 -0.43531,0.23362 c -0.76994,0.41313 -3.08292,1.11023 -4.55675,1.37333 -3.79878,0.67809 -7.63865,0.56156 -17.27448,-0.52426 -4.21212,-0.47465 -6.90452,-0.53469 -7.88935,-0.17588 -0.34713,0.12648 -0.87566,0.40747 -1.17454,0.6245 -0.29886,0.217 -0.71908,0.52236 -0.93382,0.67858 -0.3247,0.23618 -0.55205,0.28356 -1.35007,0.28128 -1.37745,-0.004 -2.66433,-0.32641 -6.98047,-1.7493 -4.19555,-1.38311 -5.43819,-1.72905 -6.85721,-1.90895 -1.7162,-0.21762 -1.88955,-0.14233 -4.93516,2.14282 -3.82899,2.87298 -5.40555,4.23486 -7.84088,6.77322 l -2.1447,2.23544 -1.56371,-0.46318 c -0.86006,-0.25476 -2.01815,-0.571 -2.57356,-0.70277 l -1.00983,-0.23959 1.11188,-0.013 c 0.61154,-0.007 1.5106,0.0489 1.99792,0.1245 0.48731,0.0756 0.90658,0.11692 0.9317,0.0918 0.17411,-0.1741 -3.99959,-2.47843 -6.09482,-3.36497 -0.59121,-0.25015 -0.65018,-0.30858 -0.53284,-0.52784 0.24094,-0.4502 3.95304,-4.09342 5.34061,-5.24151 1.14655,-0.94866 3.75267,-2.86472 4.35962,-3.20524 0.13085,-0.0734 0.0335,-0.28352 -0.41109,-0.88748 -0.70314,-0.95512 -1.02025,-1.934 -0.91487,-2.823869 0.0828,-0.69948 0.33402,-1.11842 0.33402,-0.5571 0,0.56505 0.96327,2.247779 1.74001,3.039649 0.9132,0.93092 2.08318,1.86745 2.76346,2.212 1.20839,0.61206 3.36893,0.98524 4.81042,0.83088 l 0.82218,-0.0881 -0.71688,-0.29162 c -0.96179,-0.39132 -2.32347,-1.31095 -2.95408,-1.99508 -0.52336,-0.56778 -1.03724,-1.43961 -1.03724,-1.75971 0,-0.40209 4.10572,-1.713639 6.18525,-1.975889 3.08388,-0.38887 3.80437,-0.53319 3.72085,-0.74525 -0.34514,-0.87615 -0.45636,-3.76805 -0.19236,-5.00147 0.13698,-0.64005 0.74116,-2.46148 0.81648,-2.46148 0.0132,0 0.0262,1.1219 0.029,2.49303 z m 17.59,2.51267 c -1.741,0.16683 -3.06965,0.36398 -4.54427,0.67418 -1.67939,0.35335 -4.24065,1.10352 -4.13351,1.21066 0.0302,0.0303 1.01523,-0.0552 2.18891,-0.18984 4.08397,-0.46839 5.90463,-0.57156 9.96018,-0.5646 3.6393,0.006 5.47388,0.10009 9.59345,0.49075 0.59152,0.0561 0.55984,0.0353 -0.50492,-0.32839 -1.46195,-0.4996 -4.38071,-1.07365 -6.31148,-1.24133 -1.39053,-0.12081 -5.19774,-0.15212 -6.24836,-0.0514 z m 7.7,9.838949 c -0.17356,0.0209 -0.77,0.0786 -1.32541,0.12827 l -1.00984,0.0903 0.90228,0.21723 c 2.51095,0.60456 7.25729,0.95865 10.0797,0.75201 0.90254,-0.0661 1.75175,-0.12181 1.88713,-0.12385 0.16337,0 0.20389,-0.0457 0.12048,-0.12936 -0.18315,-0.18313 -3.50314,-0.71344 -5.46544,-0.87297 -1.52839,-0.12424 -4.38646,-0.15818 -5.1889,-0.0616 z m -41.8854,1.02872 c -1.05637,0.64084 -2.04948,1.4498 -2.91288,2.37277 -0.70555,0.75422 -1.78043,2.2469 -1.78043,2.47246 0,0.14114 0.87931,-0.29753 1.63705,-0.81668 0.7859,-0.53845 2.47244,-2.16801 3.02629,-2.92404 0.6591,-0.89971 1.0562,-1.57787 0.92393,-1.57787 -0.0625,0 -0.46478,0.213 -0.89396,0.47336 z m -7.30185,-8.520499 c -1.85683,2.074739 -5.60548,6.638679 -8.48225,10.326979 -1.0386,1.33158 -1.06267,1.18736 -0.12272,-0.73507 1.60893,-3.29062 4.56948,-6.86063 7.4897,-9.031429 1.15974,-0.86214 1.56956,-1.06808 1.11527,-0.56048 z M 24.100643,111.76395 c 2.60714,0.53273 5.80547,2.83777 8.48244,6.11333 l 0.56686,0.69362 -1.04829,-0.94672 c -3.33007,-3.00746 -5.20939,-4.20544 -7.52161,-4.79472 -2.42401,-0.61778 -4.67103,-0.0572 -6.77274,1.68967 -1.7534,1.45736 -2.34137,2.89833 -2.0138,4.93537 0.0781,0.48599 0.42126,1.87767 0.76249,3.09263 0.82798,2.94809 1.12903,4.25132 1.30442,5.64637 l 0.14648,1.16522 0.84798,-1.00219 c 1.38268,-1.63412 2.99349,-2.82333 4.53617,-3.3489 l 0.54649,-0.18617 -0.37869,0.28079 c -0.75675,0.56116 -1.62118,1.43762 -2.14861,2.17849 -0.56077,0.78771 -1.44893,2.25554 -1.44893,2.3946 0,0.044 0.27602,-0.24958 0.61337,-0.6524 0.78705,-0.93973 1.93597,-2.02176 2.70374,-2.54633 0.9561,-0.65324 2.53951,-1.28733 2.31745,-0.92805 -0.17633,0.28531 -1.00099,3.40467 -1.22146,4.62025 -0.88686,4.88993 -0.39105,9.14324 1.42541,12.22792 0.27596,0.46862 0.52129,0.85205 0.54518,0.85205 0.0239,0 -0.1249,-0.37526 -0.33068,-0.8339 -0.7697,-1.71549 -0.93419,-2.64327 -0.93761,-5.28824 -0.003,-2.72369 0.17698,-3.81107 1.0896,-6.56393 0.61796,-1.86405 2.30793,-5.41866 2.53511,-5.33226 0.0875,0.0333 0.58043,0.13557 1.09542,0.22734 0.93564,0.16673 0.93648,0.16663 1.13606,-0.14117 0.48451,-0.74723 2.00261,-2.13834 2.33354,-2.13834 0.0378,0 -0.0904,0.26981 -0.28481,0.59959 -1.04809,1.77792 -2.31603,4.28862 -2.66608,5.27924 -1.26095,3.56831 -1.40231,7.33349 -0.37811,10.07093 0.27895,0.74555 0.95205,1.99102 0.82853,1.53303 -0.0375,-0.13885 -0.16882,-0.62168 -0.29192,-1.07295 -0.33492,-1.22768 -0.29766,-3.88002 0.0741,-5.27983 0.58449,-2.20048 1.65764,-4.38003 3.17116,-6.44052 0.73892,-1.00599 0.79248,-1.0507 1.17651,-0.98231 0.38228,0.0681 0.42349,0.0347 0.8268,-0.66954 0.45544,-0.79527 1.6477,-2.33297 1.7385,-2.24217 0.0303,0.0303 -0.2818,0.95724 -0.69345,2.05994 -1.46484,3.92376 -1.76765,4.93926 -1.90297,6.38165 -0.28697,3.05905 0.42309,6.43257 1.93484,9.19245 0.5216,0.95224 0.54891,0.94188 0.19746,-0.0749 -0.58783,-1.7007 -0.80258,-3.05456 -0.80903,-5.10051 -0.01,-3.05354 0.54903,-4.98458 2.18367,-7.54776 0.55386,-0.86846 0.60865,-0.91658 0.96586,-0.84803 1.3061,0.25061 2.54345,0.44333 2.84641,0.44333 0.32262,0 0.37509,-0.0708 0.63149,-0.85205 0.34925,-1.06417 1.28046,-3.00027 1.68476,-3.50287 0.29233,-0.3634 0.28227,-0.28695 -0.2491,1.89344 -1.27374,5.22651 -1.55977,7.51914 -1.31583,10.54657 0.20944,2.59941 0.78743,5.01803 1.6274,6.81 0.27679,0.5905 0.27504,0.55561 -0.0349,-0.69426 -0.8941,-3.60584 -0.37862,-8.88438 1.29432,-13.25411 0.21857,-0.57088 0.28211,-0.63399 0.66542,-0.66093 1.91023,-0.1342 4.03591,-0.31171 4.405,-0.36784 0.44638,-0.0679 0.44693,-0.0688 0.59247,-0.97124 0.22194,-1.3761 1.07026,-4.14334 1.22126,-3.98371 0.0265,0.028 -0.0297,1.10179 -0.12498,2.38618 -0.56787,7.65852 -0.52826,11.53934 0.15587,15.27129 0.20933,1.14194 0.65688,2.71349 0.74705,2.62332 0.0299,-0.0299 -0.0101,-0.53244 -0.089,-1.11671 -0.32654,-2.419 0.0608,-6.69454 1.03396,-11.41315 0.72355,-3.50827 0.53718,-3.14066 1.64263,-3.24014 0.51585,-0.0464 2.00982,-0.14323 3.31995,-0.2151 1.31012,-0.0719 2.39914,-0.1478 2.42004,-0.16871 0.0209,-0.0209 -0.15635,-0.83017 -0.39392,-1.79836 -0.23756,-0.9682 -0.43013,-1.81996 -0.42792,-1.89279 0.0152,-0.50209 1.34895,2.12539 2.14337,4.22248 0.32875,0.86783 0.892,2.33606 1.25168,3.26271 1.91571,4.93565 2.50788,9.78631 1.58067,12.94771 -0.28957,0.98731 -0.11803,0.81556 0.32007,-0.32044 0.72473,-1.87931 0.90335,-2.93861 0.97594,-5.78806 0.0856,-3.35937 -0.1797,-5.67225 -1.04547,-9.11495 -0.41411,-1.64672 -0.42333,-1.59774 0.30896,-1.64308 l 0.61628,-0.0382 -0.91259,-2.08279 c -0.50192,-1.14553 -1.17583,-2.65082 -1.49757,-3.34508 l -0.58498,-1.2623 0.45742,0.50492 c 1.3229,1.46031 3.56827,5.45461 4.43495,7.88935 0.21006,0.59012 0.69558,1.72619 1.07896,2.52459 1.75667,3.65841 2.56934,7.38455 2.24856,10.30972 -0.0824,0.75159 -0.23751,1.69923 -0.34466,2.10589 -0.10715,0.40666 -0.17216,0.76204 -0.14448,0.78973 0.0916,0.0916 0.71055,-1.63727 0.97672,-2.72829 0.34129,-1.39894 0.46848,-4.48239 0.26037,-6.31148 -0.26621,-2.33952 -1.00457,-5.15228 -2.01302,-7.66844 l -0.2656,-0.66271 h 2.49119 c 3.2814,0 8.69308,0.19783 13.88498,0.50712 2.30928,0.13756 4.31017,0.25012 4.44643,0.25012 0.21128,0 0.23631,-0.0604 0.17007,-0.41025 -0.1631,-0.86137 -1.05435,-4.37797 -1.41516,-5.58371 -0.20743,-0.6932 -0.35874,-1.27876 -0.33625,-1.30126 0.0751,-0.075 0.95574,1.4619 1.44589,2.52329 0.82581,1.78823 1.53232,4.30568 1.88833,6.72849 0.0714,0.48598 0.27654,1.42324 0.45585,2.08279 0.63534,2.33699 0.83867,3.90548 0.90821,7.00574 0.0494,2.20115 0.0184,3.25383 -0.12817,4.35281 -0.10633,0.79724 -0.17845,1.46438 -0.1603,1.48253 0.0519,0.0519 0.78968,-2.70305 1.005,-3.75255 0.72878,-3.5521 0.83597,-8.07893 0.27356,-11.55322 -0.0999,-0.61733 -0.15707,-1.14705 -0.12698,-1.17715 0.0301,-0.0301 0.92236,0.0128 1.9828,0.0952 1.68632,0.13113 15.739447,1.4189 17.264987,1.58209 0.47718,0.0511 0.4267,0.0217 -0.31558,-0.18372 -1.62341,-0.44916 -5.26878,-1.27754 -8.57147,-1.94779 l -3.26982,-0.66358 5.54195,-0.0869 c 3.36271,-0.0527 6.52204,-0.0359 8.03434,0.0428 l 2.49238,0.12973 0.66336,0.43543 c 1.06449,0.69872 2.10473,0.99292 3.53563,0.99991 1.52915,0.007 1.82415,-0.17528 0.80268,-0.49726 -0.68177,-0.21491 -0.83366,-0.33749 -0.59839,-0.48289 0.15372,-0.095 3.66307,0.36229 6.45378,0.84099 2.5004,0.4289 2.44583,0.42664 5.48883,0.22769 2.57044,-0.16805 7.6573,-0.1692 10.66855,-0.002 5.55078,0.30746 10.68097,0.90631 19.56559,2.28397 6.11058,0.94751 8.14421,1.13578 9.48991,0.87861 3.00107,-0.57354 8.89136,-2.76896 19.29043,-7.1899 5.35351,-2.27593 5.56222,-2.37756 6.41457,-3.12317 0.36646,-0.32056 0.69839,-0.55074 0.73762,-0.51151 0.0393,0.0392 0.002,0.3582 -0.0816,0.70882 -0.42689,1.77949 -3.59373,3.33471 -16.97963,8.33865 -3.19361,1.19384 -6.35757,2.42309 -7.03103,2.73167 -1.7919,0.82107 -2.64856,0.97011 -5.08701,0.88506 -2.14579,-0.0748 -4.01239,-0.29947 -9.08853,-1.09373 -1.73566,-0.27158 -4.03619,-0.60872 -5.1123,-0.74918 -4.5323,-0.59166 -12.57296,-1.07235 -20.5376,-1.22783 l -4.19089,-0.0818 0.1831,0.60837 c 0.10069,0.33459 0.18308,0.85386 0.18308,1.15392 0,0.46357 0.0427,0.55472 0.28402,0.60649 0.15621,0.0335 0.76684,0.15239 1.35697,0.26418 1.8602,0.35241 4.22043,0.92481 8.64672,2.09702 8.23136,2.17988 11.09455,2.74413 15.25245,3.00584 3.35359,0.21107 6.35432,-0.12289 10.81396,-1.20352 6.39333,-1.54918 13.95849,-4.14334 24.99346,-8.57049 5.84798,-2.34617 7.24225,-2.79901 9.03909,-2.93586 2.16128,-0.1646 1.07556,0.51806 -5.06286,3.1833 -18.73487,8.13447 -32.97662,12.4891 -38.60762,11.80483 -2.71078,-0.32941 -11.47251,-2.07545 -22.26834,-4.43766 l -5.2087,-1.1397 -0.87835,0.94052 c -1.54531,1.65471 -3.3645,2.60783 -6.65469,3.48658 -2.17577,0.58111 -3.38529,0.97734 -6.65066,2.17873 -4.24296,1.56107 -11.23739,3.53699 -16.21196,4.57987 -2.638737,0.55321 -7.488067,1.19074 -11.256617,1.47992 -3.13003,0.24018 -4.55719,0.27584 -10.98198,0.27435 -12.81711,-0.003 -18.12876,-0.41821 -33.64018,-2.62991 -5.81653,-0.82933 -7.60989,-1.0025 -9.44734,-0.91217 -1.88406,0.0926 -2.47859,0.31226 -3.29126,1.21592 -1.53717,1.70929 -4.51065,4.54868 -5.40565,5.16187 -3.92474,2.68898 -7.18525,2.85926 -10.30647,0.53829 -0.45899,-0.34131 -1.03335,-0.83071 -1.27634,-1.08757 l -0.44181,-0.467 0.56195,0.34889 c 0.70733,0.43915 2.10821,1.01999 3.04643,1.26309 1.04847,0.2717 1.14506,0.22769 0.4009,-0.18259 -2.23937,-1.23468 -3.84265,-3.12991 -4.39108,-5.19069 -0.3346,-1.25731 -0.24782,-2.22599 0.37675,-4.20569 1.23451,-3.91297 1.61686,-6.02075 1.61742,-8.91646 0,-2.86799 -0.5383,-5.62438 -1.82445,-9.33231 -0.90569,-2.61108 -1.35748,-4.23005 -1.44588,-5.18126 -0.18185,-1.95655 0.81229,-3.80392 2.89511,-5.3799 2.07695,-1.57152 4.1751,-2.09421 6.49974,-1.61922 z m 58.47052,18.51954 c 0,0.0894 0.0844,0.84206 0.1875,1.67254 0.3819,3.07591 0.48594,5.78896 0.3295,8.59359 -0.0809,1.44983 -0.17368,2.86326 -0.20623,3.14096 l -0.0592,0.50492 0.37089,-0.75738 c 0.20398,-0.41655 0.52896,-1.38221 0.72217,-2.1459 0.32366,-1.27934 0.3516,-1.58207 0.35534,-3.85 0.004,-2.51853 -0.063,-3.06626 -0.59546,-4.85984 -0.27692,-0.93275 -0.92041,-2.46148 -1.03611,-2.46148 -0.0376,0 -0.0684,0.0732 -0.0684,0.16259 z m 21.143457,2.24146 c -2.72405,0.1694 -4.713617,0.40629 -4.291807,0.51102 1.458587,0.36216 7.699227,0.60153 12.281977,0.47109 2.64479,-0.0753 6.39325,-0.37092 6.53799,-0.51567 0.0798,-0.0798 -2.54644,-0.33976 -4.80848,-0.4759 -2.28058,-0.13726 -7.4412,-0.13223 -9.71968,0.009 z m 18.49263,1.57087 c -2.77702,0.47562 -5.17558,1.45096 -7.7,3.13109 -0.93721,0.62375 -3.78689,3.344 -3.78689,3.61488 0,0.0773 0.58224,-0.24896 1.29385,-0.72497 3.72506,-2.49175 6.44429,-3.85731 10.8873,-5.46753 l 2.01968,-0.73196 -0.88361,0.008 c -0.48598,0.004 -1.30963,0.0811 -1.83033,0.17032 z m -0.50492,3.28318 c -1.15274,0.26023 -2.29948,0.87806 -2.97992,1.60549 -0.31904,0.34109 -0.55477,0.64544 -0.52386,0.67635 0.0309,0.0309 0.29942,-0.0296 0.59668,-0.13448 0.69826,-0.24636 0.69509,-0.24685 0.86745,0.13144 0.29973,0.65783 1.6479,0.88875 2.61761,0.44833 0.77995,-0.35424 1.10004,-0.83164 1.03271,-1.54019 l -0.0552,-0.58038 0.67744,-0.23025 c 0.3987,-0.13553 0.63093,-0.27676 0.56443,-0.34326 -0.20551,-0.20551 -1.94249,-0.22603 -2.79737,-0.0331 z m -103.309577,2.57247 c -1.21337,1.99742 -1.63111,3.41847 -1.56657,5.32921 0.0431,1.27709 0.0693,1.38641 0.57916,2.41526 0.62222,1.25569 1.61782,2.27314 2.81632,2.87814 0.40825,0.20609 0.77502,0.3747 0.81504,0.3747 0.04,0 -0.35622,-0.49666 -0.88053,-1.10369 -0.52431,-0.60703 -1.15025,-1.47852 -1.39099,-1.93664 -1.05333,-2.0045 -1.07716,-3.53007 -0.11493,-7.35708 0.17228,-0.68517 0.28826,-1.27073 0.25774,-1.30126 -0.0305,-0.0305 -0.26237,0.28509 -0.51524,0.70136 z m 67.01858,-25.60549 c 5.86912,0.27126 12.22474,1.05582 17.861017,2.20484 1.94884,0.3973 5.32449,1.21927 5.26236,1.28142 -0.0252,0.0252 -1.6029,-0.15344 -3.50594,-0.39706 -11.836807,-1.51525 -20.336167,-2.13705 -32.969887,-2.412 -2.13687,-0.0465 -3.86489,-0.1049 -3.84003,-0.12975 0.0897,-0.0897 3.77503,-0.43464 5.72815,-0.53614 2.93607,-0.15258 8.29321,-0.15787 11.46433,-0.0114 z m 3.91312,2.82307 c 13.257267,0.9158 22.420747,2.66163 30.168867,5.74781 1.87182,0.74557 2.4237,1.08016 0.73812,0.44752 -2.59056,-0.97232 -6.84626,-2.10502 -10.83649,-2.88425 -14.108137,-2.75511 -34.948307,-3.33388 -59.517247,-1.65292 -4.74618,0.32471 -8.94341,0.64882 -9.71967,0.75051 -0.38481,0.0504 -0.40109,0.0426 -0.12623,-0.0603 0.41089,-0.15392 7.62708,-1.05054 11.1082,-1.38021 5.87298,-0.55621 11.26849,-0.92865 16.53607,-1.14144 4.24257,-0.17139 18.28599,-0.059 21.64838,0.17329 z m 49.150307,22.86662 c 2.39881,0.52385 4.38452,0.97551 4.41271,1.00369 0.0282,0.0282 -0.11169,0.0876 -0.31081,0.13203 -4.19515,0.9363 -8.01141,2.50322 -10.57336,4.34136 -0.68697,0.49288 -1.3849,0.93024 -1.55096,0.97192 -0.51051,0.12813 -1.06263,-0.0593 -1.78836,-0.60728 -0.82009,-0.61918 -2.81395,-2.6238 -2.73567,-2.75045 0.0299,-0.0483 0.38352,-0.16123 0.78589,-0.25091 2.37255,-0.52871 5.8271,-2.25011 6.98143,-3.47883 0.16223,-0.17269 0.32258,-0.314 0.35632,-0.314 0.0337,0 2.024,0.42862 4.42281,0.95247 z m 10.06224,3.30778 c -0.0519,0.0521 -2.40447,0.86825 -5.228,1.81372 -2.82354,0.94548 -6.32658,2.1522 -7.78453,2.6816 -1.45795,0.52941 -2.70702,0.96291 -2.7757,0.96334 -0.23787,0.001 1.62157,-1.16992 3.01602,-1.90001 3.26803,-1.71105 7.22115,-2.98342 10.74165,-3.45738 1.47995,-0.19922 2.16203,-0.23325 2.03056,-0.10127 z m 21.86175,2.51042 c 2.26592,0.64857 4.9797,2.37152 6.4246,4.07894 0.76018,0.89828 1.37607,1.82623 1.0431,1.57159 -2.24052,-1.7134 -5.09845,-3.51979 -7.84975,-4.96155 -1.09346,-0.573 -1.98811,-1.06771 -1.98811,-1.09934 0,-0.11522 1.35136,0.11874 2.37016,0.41036 z m -58.17589,2.07903 c 2.4857,0.38773 5.02252,1.09708 6.37878,1.78364 l 0.49687,0.25151 -1.0649,0.27645 c -1.8181,0.47197 -3.41862,1.35862 -4.04798,2.24249 l -0.2731,0.38352 0.50032,-0.33109 c 1.10734,-0.73281 1.82624,-0.89602 3.89194,-0.88361 1.62398,0.01 2.07208,0.0589 3.14873,0.34538 1.24944,0.33247 1.41067,0.40059 2.9734,1.25618 1.03451,0.56638 2.14775,0.98311 3.59755,1.34669 0.62483,0.15671 1.20879,0.3061 1.29769,0.332 0.12259,0.0357 0.10325,0.16199 -0.0801,0.52295 -0.37186,0.73199 -0.8676,2.41099 -0.96044,3.25289 -0.046,0.41656 -0.11376,0.92779 -0.15071,1.13607 -0.059,0.33274 0.001,0.28679 0.49345,-0.37869 0.96887,-1.3089 2.3331,-2.49358 3.60429,-3.12994 1.19721,-0.59932 1.75148,-0.74661 3.62839,-0.96419 1.51209,-0.1753 2.44071,-0.5109 5.2322,-1.89096 4.47586,-2.21278 6.88712,-2.72118 12.87542,-2.7147 4.74401,0.005 7.59976,0.29996 12.12187,1.25149 1.76763,0.37193 3.8494,0.75212 5.6765,1.03671 0.39594,0.0617 0.25182,0.13318 -1.38853,0.68901 -8.04542,2.72617 -16.58011,4.7501 -22.72132,5.38824 l -0.94673,0.0984 1.00984,0.1048 c 2.14738,0.22283 8.94781,-0.0887 13.56968,-0.62168 5.33075,-0.61471 13.46057,-2.04051 18.71365,-3.28197 0.70857,-0.16745 1.31022,-0.28256 1.337,-0.25579 0.11193,0.11191 -1.44635,3.12137 -2.22089,4.2891 -1.07056,1.6141 -3.42751,3.98989 -5.05603,5.0965 -1.58166,1.07475 -3.5974,2.06467 -5.40817,2.65593 -2.1662,0.70731 -2.60899,0.75946 -1.42348,0.16767 1.06296,-0.53063 4.45178,-2.6791 4.36408,-2.76678 -0.0308,-0.0308 -1.01312,0.30907 -2.18307,0.75516 -9.83067,3.7484 -18.73151,4.32573 -28.57228,1.85326 -2.37676,-0.59716 -4.32877,-1.25045 -7.82623,-2.61926 -0.58455,-0.22876 1.56531,1.2857 2.90681,2.04772 0.70315,0.39942 0.75541,0.45195 0.37515,0.37704 -0.95823,-0.18876 -3.53746,-1.10991 -4.74292,-1.6939 -1.70214,-0.82462 -2.4024,-1.40642 -3.33946,-2.77456 -1.30781,-1.90947 -1.60109,-2.04636 -3.64993,-1.70378 -0.74275,0.1242 -1.52972,0.18301 -1.85404,0.13857 -2.80659,-0.3847 -11.27306,-6.09104 -16.30497,-10.98943 l -1.42655,-1.38871 1.99458,-0.41933 c 1.09702,-0.23064 2.1934,-0.46764 2.4364,-0.52667 0.49079,-0.11924 0.75961,-0.0965 3.01725,0.25571 z m 37.56555,4.61918 c -0.96012,0.0877 -3.79061,0.69812 -4.85969,1.04811 -1.474,0.48255 -3.23548,1.25647 -4.3024,1.89032 -0.49086,0.29162 -0.8734,0.54929 -0.85008,0.5726 0.0233,0.0233 0.8655,-0.20854 1.87154,-0.51524 3.37708,-1.02955 6.59524,-1.65467 10.09719,-1.96134 1.69053,-0.14806 7.48624,-0.0915 8.01736,0.0783 0.19455,0.0622 0.20828,0.0524 0.0613,-0.0436 -0.33608,-0.21963 -2.54998,-0.76195 -3.92931,-0.96253 -1.23272,-0.17925 -4.65542,-0.23899 -6.10594,-0.10656 z m 24.80412,6.10851 c -4.61246,0.70373 -9.08861,1.29267 -13.47564,1.77301 -2.75613,0.30178 -3.73986,0.45027 -3.53443,0.53354 0.46846,0.18989 6.24776,0.25266 8.21647,0.0892 3.83616,-0.31843 7.77079,-1.15764 11.09728,-2.3669 1.87168,-0.6804 1.95944,-0.6793 -2.30368,-0.0289 z m -75.115227,-6.45898 c 1.872307,1.65649 2.558877,2.62835 3.779737,5.35027 0.14978,0.33396 0.53942,0.89273 0.86588,1.24173 l 0.59353,0.63455 -0.22084,0.38478 c -0.12147,0.21164 -0.19917,0.40647 -0.17268,0.43295 0.0265,0.0265 0.32853,-0.0165 0.6712,-0.0957 0.59624,-0.13763 0.65082,-0.12672 1.2685,0.25333 1.00366,0.61756 2.79291,1.31807 5.34134,2.0912 2.81301,0.8534 3.01665,0.94793 4.91875,2.28342 2.2814,1.60183 3.57126,2.22418 4.53982,2.19046 0.22586,-0.008 0.13994,-0.0619 -0.28323,-0.17827 -1.02422,-0.28154 -1.8515,-0.77712 -3.47557,-2.08198 -2.16358,-1.73833 -2.48589,-1.92408 -5.03033,-2.89908 -2.72116,-1.04269 -3.49303,-1.38595 -4.61337,-2.05152 -0.97559,-0.57958 -1.06471,-0.77901 -0.13953,-0.31222 0.33668,0.16987 1.86182,0.77696 3.38919,1.34911 3.19922,1.1984 3.73651,1.44957 4.85984,2.27183 2.00214,1.46555 3.91533,2.04884 8.0787,2.46302 2.29915,0.22873 3.00024,0.35493 3.62888,0.65324 0.53893,0.25573 0.83419,0.80767 0.71837,1.34285 -0.14483,0.66929 -0.76242,1.76229 -1.27513,2.25668 -2.14203,2.06558 -5.59475,1.22615 -12.47623,-3.03328 -3.72183,-2.30369 -4.13544,-2.51267 -6.91057,-3.49142 -1.98239,-0.69916 -5.76679,-4.01686 -9.398957,-8.23983 -1.85037,-2.15137 -3.74786,-4.566 -3.65837,-4.65547 0.0369,-0.0369 0.5686,-0.13497 1.18147,-0.21782 l 1.11429,-0.15066 0.88361,0.68891 c 0.48598,0.3789 1.30574,1.06239 1.8217,1.51887 z m 22.256587,14.86534 c 0.12149,0.0318 0.32031,0.0318 0.4418,0 0.1215,-0.0318 0.0221,-0.0577 -0.2209,-0.0577 -0.24299,0 -0.3424,0.026 -0.2209,0.0577 z M 88.882643,152.29976 c 2.70932,3.08394 4.4428,5.29102 6.33737,8.06879 l 0.95772,1.40419 -0.24718,0.55237 c -0.13595,0.3038 -0.36716,0.68017 -0.51381,0.83638 l -0.26662,0.28402 h 0.53414 c 0.29377,0 0.78691,-0.0637 1.09587,-0.14145 0.55804,-0.14051 0.56551,-0.13798 1.12866,0.38111 1.78871,1.64878 4.165987,2.64428 7.418847,3.10673 1.87143,0.26604 1.9765,0.21754 0.40665,-0.18771 -3.13584,-0.80952 -5.13835,-1.90543 -6.695707,-3.66437 -0.45299,-0.51163 -0.42324,-0.49599 0.32022,0.16845 0.914497,0.81731 1.830327,1.37934 2.588597,1.5886 0.27771,0.0766 1.69779,0.33922 3.15574,0.58353 4.07965,0.68359 5.6075,1.12024 6.80671,1.94532 0.79262,0.54535 1.33235,1.4988 1.33391,2.35646 0.002,1.13619 -0.73845,1.73566 -2.14471,1.73617 -0.92078,0 -1.65263,-0.21316 -3.4082,-0.99421 -0.65955,-0.29344 -2.36365,-0.9735 -3.78689,-1.51123 -4.014107,-1.51667 -6.248347,-2.65042 -7.652377,-3.88318 -0.45974,-0.40365 -4.07731,-4.48384 -5.68073,-6.40717 -1.79579,-2.1541 -3.32124,-4.35602 -4.56348,-6.58719 -0.39826,-0.71533 -0.39863,-0.71768 -0.11907,-0.77174 0.15423,-0.0298 0.64963,-0.0612 1.1009,-0.0697 l 0.82049,-0.0154 z m -14.53907,-0.86826 0.54538,0.0853 0.47614,1.26229 c 0.62473,1.65625 1.77165,4.05759 2.48331,5.1994 l 0.56886,0.91269 -0.20994,0.41527 c -0.11548,0.2284 -0.32681,0.54307 -0.46965,0.69929 l -0.25969,0.28401 h 0.49619 c 0.27291,0 0.67908,-0.0525 0.90261,-0.11656 0.38487,-0.11037 0.43726,-0.0822 0.98843,0.53078 1.15867,1.28873 1.55131,2.56469 1.95258,6.3454 0.13736,1.2943 0.28291,2.50399 0.32342,2.68822 0.13391,0.60887 0.45475,1.55143 0.50946,1.49671 0.0296,-0.0296 -0.0127,-0.21788 -0.0938,-0.41843 -0.0901,-0.22249 -0.18558,-1.69324 -0.24502,-3.77284 -0.12453,-4.35641 -0.39787,-5.68507 -1.45455,-7.07046 -0.60254,-0.78998 -0.24354,-0.59707 0.54954,0.29531 1.03175,1.1609 1.34076,1.77754 1.3348,2.66365 -0.002,0.38682 -0.0209,1.83937 -0.0406,3.2279 -0.0601,4.22871 0.25149,5.09609 2.76202,7.68822 2.29904,2.37377 2.53767,2.85412 1.41604,2.85045 -1.87634,-0.006 -4.04804,-1.50312 -4.99712,-3.4446 -0.58768,-1.20217 -0.78491,-2.06724 -0.95545,-4.19079 -0.34012,-4.23536 -0.90511,-5.77699 -2.91235,-7.94672 -1.463,-1.58146 -2.4283,-3.12131 -3.52486,-5.62296 -0.64635,-1.47454 -1.51158,-3.76033 -1.51158,-3.99335 0,-0.18887 0.45069,-0.21136 1.36586,-0.0682 z m 6.16865,1.1268 c 1.67415,2.82285 4.02507,5.60595 6.81847,8.07194 2.09898,1.85296 3.21134,3.13231 4.11572,4.73357 0.5359,0.94887 0.56581,1.04798 0.40779,1.3516 -0.0938,0.18021 -0.31792,0.46535 -0.49809,0.63366 -0.18015,0.16832 -0.32756,0.35293 -0.32756,0.41025 0,0.0573 0.36305,0.10423 0.80678,0.10423 h 0.80678 l 0.18951,0.47361 c 0.10423,0.26048 0.51035,1.3387 0.90251,2.39604 0.39215,1.05733 0.99743,2.56251 1.34503,3.34483 0.6436,1.44843 1.8865,3.79541 1.96722,3.71468 0.0245,-0.0245 -0.16029,-0.49344 -0.41058,-1.04215 -0.65863,-1.44394 -2.10317,-5.87119 -1.70252,-5.21787 0.24558,0.40043 2.83418,6.16618 3.50219,7.80063 0.37922,0.92784 0.79824,2.11218 0.93116,2.6319 0.24144,0.94406 0.24142,0.94551 -0.0227,1.55946 -0.33822,0.78623 -0.51421,0.93796 -0.86814,0.74855 -0.42965,-0.22995 -1.44971,-1.90467 -2.65245,-4.35476 -1.32194,-2.69292 -1.66259,-3.51221 -3.01771,-7.2582 -1.25456,-3.46801 -2.2591,-5.56094 -3.24135,-6.75328 -0.40035,-0.48599 -1.58762,-1.84927 -2.63838,-3.02951 -4.50952,-5.0652 -6.70842,-7.94398 -7.94791,-10.40527 -0.24539,-0.48729 -0.44617,-0.9158 -0.44617,-0.95224 0,-0.0365 0.29821,-0.0662 0.6627,-0.0662 l 0.66271,8e-5 z m 6.3557,15.38476 c 0.42094,0.52972 0.93694,1.30303 1.14664,1.71845 0.32099,0.63589 1.373,3.19987 1.373,3.34631 0,0.19957 -2.89299,-3.00885 -3.07657,-3.41201 -0.22773,-0.50011 -0.46052,-2.61587 -0.28782,-2.61587 0.0437,0 0.4238,0.43341 0.84475,0.96312 z"
       id="path5238"
       sodipodi:nodetypes="cssssscssssscssssssssssscssssssssssssssssssssssscsssscsssssssssssssssssscssscssssssssssssscsssssssssssssscssssscsssssssssscssccccsssscccsssscssscssssccsscssssssssssscsscssssssssssscssssssssssscssscsssscssssssscssscsscssscccssscsssscsssscccsscssssssssssscssccscsssssssssscsssssssccsssscscsssscssccsssssssssssssscscsssssscsscssssssssssssssssssssssssssssssssssssssssssssscsscssssssssssssscsscssssssssscssssssssssssssssssscsscsssssscssssscsssssscsssssssssssscsssssssssssscssssscsssccsssscsscsssssssssssssssccssssssssscsssssssssssssscssssssccsssssssssssscssssssssssssssssssssssscsscssssssssscsssssssscssssssssssssssssscscsssssssssssssssssssssssscssssssssssssssssscssssscsssssssscsscssssssssssccssssssscsccsscsscsssssssssscsscsssssscssssssscssssssssssssssssscsssssss" />
  </g>
</svg>
