<?xml version="1.0" encoding="UTF-8" standalone="no"?>
<!-- Created with Inkscape (http://www.inkscape.org/) -->

<svg
   width="125.54875mm"
   height="135.80142mm"
   viewBox="0 0 125.54876 135.80143"
   version="1.1"
   id="svg5"
   inkscape:version="1.1.1 (c3084ef, 2021-09-22)"
   sodipodi:docname="coffeecup.svg"
   xmlns:inkscape="http://www.inkscape.org/namespaces/inkscape"
   xmlns:sodipodi="http://sodipodi.sourceforge.net/DTD/sodipodi-0.dtd"
   xmlns="http://www.w3.org/2000/svg"
   xmlns:svg="http://www.w3.org/2000/svg">
  <sodipodi:namedview
     id="namedview7"
     pagecolor="#ffffff"
     bordercolor="#666666"
     borderopacity="1.0"
     inkscape:pageshadow="2"
     inkscape:pageopacity="0.0"
     inkscape:pagecheckerboard="0"
     inkscape:document-units="mm"
     showgrid="false"
     inkscape:zoom="0.19442866"
     inkscape:cx="524.61401"
     inkscape:cy="1157.2368"
     inkscape:window-width="3440"
     inkscape:window-height="1300"
     inkscape:window-x="0"
     inkscape:window-y="25"
     inkscape:window-maximized="0"
     inkscape:current-layer="layer1" />
  <defs
     id="defs2">
    <clipPath
       clipPathUnits="userSpaceOnUse"
       id="clipPath3104">
      <rect
         style="fill:#f896ff;stroke-width:0.79375;stroke-linecap:round"
         id="rect3106"
         width="201.40205"
         height="191.87628"
         x="-276.24741"
         y="-21.773193"
         transform="scale(1,-1)" />
    </clipPath>
    <clipPath
       clipPathUnits="userSpaceOnUse"
       id="clipPath3248">
      <rect
         style="fill:#f896ff;stroke-width:0.8489;stroke-linecap:round"
         id="rect3250"
         width="146.62888"
         height="146.62888"
         x="-251.07216"
         y="-155.81442" />
    </clipPath>
  </defs>
  <g
     inkscape:label="Layer 1"
     inkscape:groupmode="layer"
     id="layer1"
     transform="translate(-43.803534,-70.275863)">
    <path
       style="fill:#000000;stroke-width:0.254"
       d="m 93.666831,205.85761 c -13.576452,-0.17539 -14.927834,-0.29746 -19.497192,-1.76116 -3.982924,-1.27584 -7.015734,-3.48879 -8.613877,-6.28528 -0.833806,-1.459 -0.618871,-1.37064 -4.527931,-1.86185 -9.238082,-1.16088 -15.562961,-3.96768 -16.914292,-7.50608 -0.510997,-1.33802 -0.37912,-3.37807 0.313309,-4.84655 0.656412,-1.3921 2.506421,-3.14624 4.485285,-4.2529 3.278809,-1.83362 9.083776,-3.52318 14.528698,-4.22867 1.2573,-0.16289 2.440407,-0.34046 2.629129,-0.39458 0.221462,-0.0635 -0.153518,-0.63483 -1.057555,-1.6113 -6.572402,-7.09897 -10.88202,-16.79751 -12.983946,-29.21945 -0.896138,-5.29613 -1.481862,-12.03607 -1.36901,-15.7539 0.09093,-2.99546 0.142647,-3.2648 0.877951,-4.57199 1.38679,-2.4654 3.473349,-3.30967 9.363431,-3.78869 12.493955,-1.01605 29.023005,-1.39321 45.918149,-1.04772 18.76714,0.38377 37.18791,1.0051 38.69489,1.3052 1.77973,0.35441 3.39489,1.44308 4.35061,2.93246 0.88344,1.37673 1.58524,3.71229 1.59124,5.29559 0.006,1.55582 0.22512,1.75178 1.40721,1.25788 1.33489,-0.55776 4.47774,-0.74536 6.26465,-0.37391 3.39964,0.70665 6.75833,3.25912 8.29549,6.30425 1.51028,2.99184 1.92428,5.04891 1.92916,9.58591 0.005,4.5479 -0.31397,6.24675 -1.76975,9.42896 -1.22842,2.68529 -2.74523,4.79433 -5.1851,7.20956 -6.08742,6.026 -16.01308,10.4295 -25.67755,11.39175 -1.32715,0.13216 -2.4795,0.19959 -2.56078,0.14991 -0.0813,-0.0497 -0.69756,0.46779 -1.36946,1.14996 l -1.22169,1.24033 0.86146,0.14108 c 0.47382,0.0776 2.17592,0.32316 3.78247,0.54569 11.09462,1.53675 19.51982,4.71922 21.22543,8.01756 0.20051,0.38773 0.36457,1.22956 0.36457,1.87071 0,4.48589 -6.03969,7.55244 -17.78,9.02744 l -2.413,0.30315 -1.524,2.02979 c -3.93438,5.24015 -6.52478,6.68843 -13.78603,7.70773 -2.62168,0.36802 -12.68814,0.91496 -15.04297,0.81732 -0.62865,-0.0261 -6.7437,-0.11976 -13.588999,-0.2082 z m 21.589999,-3.81762 c 8.60882,-0.53239 12.19281,-1.65334 16.129,-5.04454 1.07206,-0.92362 1.24635,-0.90556 -3.937,-0.40747 -8.29036,0.79667 -15.58516,0.96677 -33.527999,0.78176 -9.6393,-0.0994 -19.06905,-0.26685 -20.955,-0.37219 -1.88595,-0.1053 -3.475914,-0.15351 -3.533267,-0.10713 -0.21844,0.17665 0.924966,1.21935 2.368271,2.15963 2.436114,1.58715 7.249972,2.87129 12.594996,3.35986 2.025015,0.18509 26.661639,-0.11021 30.860999,-0.36992 z m 6.604,-8.38591 c 16.86436,-0.93353 31.115,-4.44612 31.115,-7.66938 0,-1.35057 -1.42784,-2.08709 -7.29239,-3.76166 -5.76994,-1.64758 -9.10107,-2.39591 -12.85011,-2.88674 -4.72288,-0.61831 -4.71165,-0.62006 -7.36524,1.15489 -7.69442,5.1467 -16.82438,7.64149 -26.594259,7.26691 -10.007524,-0.38369 -18.721781,-3.0925 -26.311301,-8.17882 l -2.517699,-1.6873 -2.410206,0.28148 c -5.069637,0.5921 -12.262891,2.44343 -15.451684,3.97683 -2.337282,1.12392 -3.85511,2.57482 -3.85511,3.68511 0,3.29405 6.010199,6.35353 13.860856,7.05586 2.784704,0.24913 27.567789,0.97691 38.336143,1.12578 6.5787,0.091 16.0449,-0.0701 21.336,-0.36296 z m -17.19849,-9.3932 c 15.54787,-1.70818 26.78605,-9.97626 34.74263,-25.56063 3.2102,-6.28777 6.70024,-16.89883 7.86439,-23.9109 0.61829,-3.7241 0.44428,-7.65296 -0.40647,-9.17655 -1.05486,-1.88921 -1.61234,-2.14316 -5.14388,-2.34315 -1.7018,-0.0964 -13.5889,-0.25616 -26.41577,-0.35505 -27.479425,-0.21186 -54.752142,0.17669 -57.02534,0.8124 -1.838477,0.51414 -3.394761,2.06995 -4.004031,4.00275 -0.427761,1.35697 -0.427863,1.6256 -0.0025,5.93423 1.224661,12.40284 3.124099,19.93879 6.93133,27.49989 2.354428,4.67584 4.582465,7.80489 7.974787,11.1997 8.754491,8.76089 22.397619,13.33515 35.484794,11.89731 z M 70.316967,164.57473 c -0.54605,-0.54604 -0.508737,-1.96293 0.06535,-2.48249 0.587629,-0.5318 1.916227,-0.54336 2.438374,-0.0213 0.455448,0.45548 0.524917,1.68524 0.136195,2.41156 -0.331571,0.61955 -2.052447,0.67962 -2.639923,0.0922 z m -3.24607,-6.47329 c -0.571017,-0.33292 -2.971571,-4.59219 -4.251909,-7.5441 -2.178685,-5.02323 -3.712819,-10.80011 -4.299636,-16.19047 -0.298602,-2.74307 -0.03559,-3.429 1.314806,-3.429 1.538554,0 1.857146,0.46904 2.194027,3.23019 0.875055,7.17169 3.143199,13.8409 7.025055,20.65622 1.070483,1.8794 1.062355,2.75021 -0.03028,3.24805 -0.787654,0.35888 -1.371499,0.36759 -1.952067,0.0291 z m 73.077933,10.91903 c 2.61127,-0.44242 7.28718,-2.03263 10.03826,-3.41389 7.44194,-3.73644 13.01133,-9.4333 14.89682,-15.23771 0.91615,-2.82039 0.98493,-7.26168 0.15354,-9.91654 -1.8955,-6.05305 -7.26138,-9.45937 -11.62662,-7.38076 -2.2942,1.09246 -2.2242,0.94585 -3.42308,7.16801 -0.003,0.017 0.537,-0.0753 1.20058,-0.20483 5.75059,-1.12265 9.80143,3.77322 7.97565,9.63946 -0.64694,2.0786 -2.0064,4.02681 -4.33387,6.21078 -3.19802,3.00078 -7.92295,5.30453 -11.68614,5.69785 l -1.57498,0.16462 -0.72049,1.42271 c -0.39629,0.78249 -1.41803,2.48318 -2.27058,3.77934 -0.85256,1.29613 -1.55009,2.41274 -1.55009,2.48132 0,0.0686 0.25717,0.0721 0.5715,0.008 0.31432,-0.0643 1.3716,-0.25248 2.3495,-0.41816 z m 7.14218,-12.41577 c 3.96194,-1.85331 7.22797,-4.64749 8.43582,-7.21711 1.07279,-2.28224 0.52829,-4.71503 -1.26253,-5.64111 -0.95741,-0.49507 -2.79444,-0.38184 -4.40947,0.27186 -1.00442,0.40652 -1.03017,0.45082 -2.26146,3.88886 -0.68499,1.91273 -1.85657,4.90002 -2.6035,6.63845 -0.74692,1.7384 -1.35804,3.20812 -1.35804,3.26603 0,0.23205 1.50665,-0.29365 3.45918,-1.20698 z M 88.140401,114.74213 c -0.992378,-0.61524 -1.063676,-1.11483 -0.430581,-3.01729 0.442011,-1.32827 0.534238,-2.07813 0.444474,-3.61399 -0.14991,-2.5652 -1.070152,-4.46865 -3.761232,-7.77997 -5.123891,-6.304816 -5.86011,-7.657392 -6.038951,-11.094494 -0.33401,-6.419571 3.346018,-10.01964 11.122914,-10.881284 3.047568,-0.337668 3.951097,-0.147777 4.210253,0.884783 0.28608,1.139902 -0.08159,1.870736 -1.231011,2.446859 -2.072843,1.038936 -3.234436,2.528544 -3.234436,4.147718 0,1.937537 1.120394,4.196105 5.0276,10.135108 1.271041,1.931975 2.503703,4.09288 2.739212,4.802 0.81915,2.46619 0.112293,5.86964 -1.829206,8.8075 -1.504366,2.27637 -5.12826,5.62453 -6.064606,5.60311 -0.1397,-0.003 -0.569189,-0.20122 -0.95443,-0.44005 z m 4.670907,-9.0694 c 0.432816,-1.59926 0.145034,-4.11856 -0.680593,-5.958336 -0.397332,-0.885368 -1.613306,-2.866822 -2.702179,-4.403243 -2.439416,-3.442106 -3.157398,-4.88348 -3.65981,-7.347153 -0.297561,-1.459205 -0.331825,-2.247798 -0.142697,-3.285592 0.136881,-0.751027 0.201321,-1.413662 0.14318,-1.472514 -0.201854,-0.204343 -2.012696,1.431443 -2.770378,2.502535 -0.676758,0.956691 -0.762,1.282268 -0.762,2.910104 0,2.554046 0.907694,4.244111 4.429074,8.246541 3.197835,3.634688 4.195242,5.404008 4.79679,8.509078 0.366217,1.89037 0.4715,2.138 0.748843,1.76103 0.17747,-0.24122 0.44737,-0.89933 0.59977,-1.46245 z m 17.549032,8.10575 c -0.70865,-0.49637 -0.71394,-1.19274 -0.0263,-3.45666 0.42827,-1.40996 0.51516,-2.2223 0.42537,-3.97645 -0.18463,-3.60721 -1.26758,-5.72206 -5.55579,-10.849586 -3.09278,-3.698113 -4.4071,-5.570576 -5.313804,-7.570242 -2.037766,-4.494199 -1.361034,-9.824237 1.661894,-13.089382 2.35445,-2.543073 5.65831,-3.889527 10.80722,-4.404334 3.36047,-0.335991 4.11866,-0.174752 4.39722,0.935101 0.26475,1.054811 -0.34221,1.931619 -1.88031,2.716377 -1.77706,0.906653 -3.18679,2.39743 -3.55295,3.757219 -0.65799,2.443607 0.54374,5.321808 5.09524,12.203354 4.15412,6.280734 4.67781,7.408418 4.65932,10.033003 -0.031,4.39232 -2.35938,8.58525 -6.93618,12.49037 -1.9975,1.70437 -2.73812,1.94163 -3.78092,1.21123 z m 5.44371,-8.96511 c 0.53111,-1.10978 0.71089,-1.92321 0.79431,-3.59349 0.17099,-3.424609 -0.92337,-6.095571 -4.45191,-10.865386 -4.00914,-5.419497 -5.38602,-9.8869 -4.23835,-13.75156 0.21905,-0.737642 0.34765,-1.391793 0.28575,-1.453693 -0.27792,-0.277927 -3.38602,2.191131 -4.14548,3.293161 -1.47201,2.136038 -1.71643,4.06659 -0.86246,6.812229 0.65502,2.10599 1.94727,4.027449 5.02791,7.476134 2.87159,3.21465 3.9119,4.647032 4.74103,6.527826 0.75911,1.721989 1.41298,4.635989 1.41298,6.297039 0,1.13003 0.0526,1.27079 0.37485,1.00336 0.20617,-0.17112 0.6838,-0.95664 1.06137,-1.74562 z"
       id="path3272"
       sodipodi:nodetypes="ssssssssssssscsssccccccccsccssssscsscssssscscsscscsssscssssccsscccssscsssscscsccscsscsssscscccccscscccsccccccccsscssscssccsscscssscssssssssssscsccssccsccssccssscsscscc" />
  </g>
</svg>
